<svg width="513" height="513" viewBox="0 0 513 513" fill="none" xmlns="http://www.w3.org/2000/svg">
<g clip-path="url(#clip0_2103_17805)">
<path d="M512.82 225.185L158.055 71.4255C123.938 56.6425 85.7672 59.0144 85.7672 97.1579V182.077C85.7672 193.965 95.0066 210.071 110.755 216.884L357.019 323.675C369.982 329.301 381.621 340.112 381.621 356.854V406.608L54.9325 265.094C23.2152 251.332 0.820007 231.363 0.820007 194.433V68.6123C0.820007 29.0622 26.8282 0.820007 68.5847 0.820007H445C485.102 0.820007 512.765 29.6138 512.792 68.6123V225.185H512.82Z" fill="#333333"/>
<path d="M0.820007 288.455L355.585 442.215C389.702 456.998 427.873 454.626 427.873 416.482V331.563C427.873 319.675 418.633 303.569 402.913 296.756L156.648 189.938C143.686 184.311 132.047 173.5 132.047 156.786V107.032L458.708 248.546C490.452 262.281 512.82 282.249 512.82 319.207V445.028C512.82 484.578 486.812 512.82 445.055 512.82H68.6399C28.5382 512.82 0.847588 483.999 0.820007 445.028V288.455Z" fill="#FF9C25"/>
</g>
<defs>
<clipPath id="clip0_2103_17805">
<rect width="512" height="512" fill="white" transform="translate(0.820007 0.820007)"/>
</clipPath>
</defs>
</svg>
