<?xml version="1.0" encoding="UTF-8"?>
<svg id="Layer_1" data-name="Layer 1" xmlns="http://www.w3.org/2000/svg" viewBox="0 0 462.68 257.58">
  <defs>
    <style>
      .cls-1 {
        fill: #fcee09;
      }

      .cls-1, .cls-2, .cls-3, .cls-4, .cls-5 {
        stroke-width: 0px;
      }

      .cls-3 {
        fill: none;
      }

      .cls-4 {
        fill: #fff;
      }

      .cls-5 {
        fill: #ffb41d;
      }
    </style>
  </defs>
  <path class="cls-4" d="m311.18,73.4l-10.3,15.6s-12.6,26.8-12.3,26.9c.3.1,7.7,6.5,7.7,6.5l19.8,8.3s17.8-27.1,17.9-27.3,8.6-16.6,8.6-16.6l-30.4-14.3-1,.9Z"/>
  <g>
    <path class="cls-2" d="m459.18,251c-13.3-5.6-26.4-11.6-39.1-18.7l-14.5-8.1c-.3-.1-.5-.1-.7-.3-2.8-1.6-5.5-3.3-8.3-4.9-.6-.3-.7-.9-.9-1.5-.5-2.2-.9-4.4-1.4-6.6-.6-2.7-1.1-5.4-1.7-8.2-1.5-7.6-3-15.2-4.5-22.9-.6-3-1.2-6-1.8-8.9-.1-.3,0-.7-.1-1.1.8.3,1.2.8,1.6,1.2,2.7,3.2,5.4,6.5,8.1,9.7.5.6.9,1.3,1.4,1.9.3.4.4.8,0,1.3-.5.7-.8,1.4-1.4,2-1,1.1-1.3,2.3-1.1,3.7.2,2,.3,4.1.4,6.1,0,.5.2.9.8,1.1,2.3.8,4.6,1.5,7,2.3.4.1.9.1,1.3-.2,2.5-1.9,4.8-4.1,6.9-6.4.6-.6.6-1.3.3-2-.6-1.6-1.2-3.3-1.8-4.9-2-6.4-3.9-12.7-5.9-19.1-1-3.4-2.1-6.8-3.2-10.2-.2-.7-.6-1.3-1.1-1.9-1.6-2.2-3.2-4.3-4.8-6.5-1.1-1.5-.9-1.8.7-2.5.8-.3,1.5-.6,2.2-1s.8-.5.5-1.3c-.1-.5-.3-1.1-.4-1.6-4.7-17.3-9.4-34.7-14.1-52-.3-1-.7-1.8-1.5-2.5-.4-.3-.7-.6-1.1-.9-3.2-2.2-6.3-4.5-9.5-6.7-.3-.2-3.2-1.9-2.8-1.9-.6-.6-1-1.3-1.6-1.8-1.4-1.1-1.8-2.5-1.7-4.8l18,.6c-1.8-5.8-3.5-12.2-5.2-18.3,1.8-1.4,4-1.4,5.9-2.6-.6-2.7-1.4-5.3-2.3-7.9,0-.1-.1-.1-.1-.2-.2-.5-.6-.7-1.2-.5-.6.2-1.3.3-2,.4-.3,0-.5-.1-1-.2.4-.6.7-1.1,1-1.6,2.4-3,3.9-6.4,4.9-10.1.7-2.5.8-5.2.9-7.8.3-5.8.4-11.7.7-17.5v-1.1c-.4.1-.7.2-1,.3-2.8,1.4-5.6,2.8-8.4,4.3-.4.2-.7.5-1.1.8.4.4.7.6,1,.9,2,1.6,3.3,3.5,3.1,6.2-.1,2.3-.1,4.7-.4,7-.2,2.1-1.1,4-2.2,5.8-.1.2-.4.4-.6.6-.2-.4-.3-.6-.4-.8-.6-2.6-2-4.7-3.8-6.6-3.4-3.4-7.4-5.2-12.3-4.7-1.3.1-1.6.5-1.3,1.8.1.5.2,1.1.4,1.6.4,1.1.8,2.2,1.3,3.3,2,4.3,5.1,7.4,9.6,9.2,1.1.4,2.2.6,3.3.4,2.2-.4,4.3-1.2,5.9-2.8.3-.3.7-.6,1.2-1-.2.5-.2.8-.4,1.1-.7,1.4-1.4,2.8-2.2,4.3-.6,1.1-1.5,2-2.6,2.7-1.2.8-2.5,1.3-3.9,1.5-1.1.2-2.2.2-3.1-.4-1-.6-2.1-1.2-3.1-2-2.1-1.6-3.8-3.6-5.3-5.8-2.1-3.1-3.6-6.4-4.4-10-.6-2.8-1.1-5.7-1.6-8.5-.2-1.1.1-1.8,1-2.4.7-.5,1.4-.9,2.2-1.4.3-.2.6-.4,1-.7-1-.4-1.8-.8-2.6-1.1-6.6-2.4-13.2-4.8-19.8-7.2-.3-.1-.7.5-1-.5h-.2c-.1,1,.4,1.2.7,1.6,1.9,2.5,3.9,5.1,5.7,7.7,2.6,3.6,5,7.3,7.5,11,.1.1.1.2.2.5-4.9,2.8-7.8,7.2-9.9,12.3h-.9c-.8-.3-1.3,0-1.8.5-.2.2-.4.4-.6.7-1.5,1.9-3,3.9-4.5,5.8-.4.5-.6,1-.9,1.5-.3.5-.4,1,.1,1.4.2.2.3.5.5.9-.5,0-.8.1-1,0-.7-.2-1.2.1-1.7.6-.2.2-.3.4-.5.6-3.4,4.2-6.8,8.5-10.2,12.7-.3.4-.7.9-1,1.3-.2.2-.2.5-.3.9.6.2,1,.4,1.5.6,4.6,1.9,9.2,3.8,13.8,5.7.4.2.8.4,1.3.6-.7.4-1.3.7-1.8,1-3.1,1.5-6.2,3-9.3,4.5-.7.3-1.2.3-1.9-.1-1.4-.7-2.9-1.4-4.3-2.1-.6-.3-1-.3-1.3.3-.6.8-1.1,1.6-1.7,2.5.4.3.8.5,1.1.6,2.7,1.4,5.4,2.7,8.1,4.1,5.9,3,11.8,5.9,17.8,8.9.4.2.8.5,1.3.8-.4.8-.7,1.4-1.1,2.1-3.8,6.4-7.7,12.8-11.5,19.3-3.6,6.2-7.2,12.5-10.8,18.8l-.3.6c-.6.9-.6,1-1.7.6-.8-.3-1.6-.7-2.3-1.1-6.6-3.4-13.2-6.8-19.9-10.2-.4-.2-.7-.4-1.3-.6.1.4.1.7.2,1.1.6,2.8,1.1,5.6,1.6,8.4v.1l9.4,3.6-1,2.5c.1,0,.3.1.6.3.6.3,1.2.7,1.8,1.1.2.1.4.2.6.4,1.6.9,3.2,1.8,4.9,2.7.5.3,1.1.6,1.6.9,1.1.6,2.2,1.2,3.3,1.8.1.1.2.1.3.2.1.1.2.1.3.2.5.4.8.8,1,1.5,1.3,4.4,2.6,8.7,3.9,13.1.1.3.1.7.2,1-3.1,1.6-6.1,3.2-9.3,4.8-.4-.4-.7-.8-1-1.2-2.8-3.6-5.7-7.2-8.5-10.9-.8-1.1-1.7-2.2-2.5-3.4-.3-.4-.6-.7-.8-1.1-.1-.1-.2-.2-.2-.3-.1-.1-.1-.2-.1-.3v.1l-20.7-14.2,3.5-5.7h0c.3-.5.5-.8.7-1.2l.1-.1c1.6-2.5,3.1-5,4.7-7.5,6.2-9.5,12.3-19,18.5-28.5.4-.6.7-1.1.9-1.4.2-.3.4-.5.5-.8,0-.1.1-.2.1-.2.1-.1.1-.2.2-.3.1-.2.2-.3.2-.4l.1-.1c-.5,0-.8.2-1.1.3-1.1.7-2.2,1.4-3.4,2.2-.1.1-.2.1-.3.2-5.9,4-11.4,8.4-16.3,13.5l-.1.1c-7,7.5-11.7,15-14.6,19.7-.1.2-.2.3-.3.5-.1.1-.1.2-.2.4-.5.9-1,1.7-1.6,2.5-.2.3-.3.4-.5.5-.3.2-.5.1-1-.2-5.4-3.7-10.9-7.5-16.3-11.2-1.1-.8-2.1-1.6-3.2-2.3-1-.7-1.1-.7-2,.2-1.4,1.6-2.7,3.3-4.1,5-.1.1-.1.2-.2.4.7.6,1.4,1.3,2.2,1.8,6.2,4.4,12.3,8.7,18.5,13.1.8.6,1.7,1.1,2.4,1.7.5.4.7.6.7.9l41.7,30.8s4.3,13.3,4.5,12.8c.6,1.3,1.1,2.4,1.5,3.5.5,1.2,1.3,2.1,2.4,2.8.5.3,1.1.6,1.6,1,2.2,1.3,4.4,2.6,6.6,3.9,1.7,1,3.4,1.9,5.1,2.8,1.1-.7,1.9-1.6,3-2-.1.4-.4.8-.6,1.2-.3.6-.6,1.2-.9,1.8-.3.8-.1,1.3.8,1.6,2,.6,2,1.1,3.4-1.1.4-.7.8-1.3,1.2-2,2.3,1.6,4.5,3.1,6.7,4.6,0,0,63.3,40.9,65.7,42.3,8.8,5.1,17.7,10,26.9,14.3,5,2.3,10,4.7,15.2,6.6.4.2.9.4,1.4.2,3.6-1.2,7-2.4,10.6-3.5.6-.2,1.7-.2,1.7-.4v-.2c.6-1-1.9-1.8-3.4-2.4Zm-88.3-201.1c2-.5,3.9-1,5.6-2.6,0,.3-.1.6-.2.9,0,.1-.1.3-.2.4-.1.3-.2.5-.4.8-.1.2-.3.4-.4.7-.1.1-.1.2-.2.3-.2.2-.4.4-.5.6-.1.1-.2.1-.3.2-.2.1-.4.3-.6.4-.1.1-.2.1-.3.1-.1.1-.2.1-.3.1-.6.1-1.2.1-1.7-.1-.3-.1-.6-.3-.9-.6-.4-.5-.3-1,.4-1.2Zm-5,44.7c2.5,3.6,5.1,7.1,7.7,10.6,1,1.3,1.4,2.6.7,4.1-.3.7-.5,1.7-.7,2.5-.1.2-.1,0-.2,1h-.3c-.1,0-.1-.4-.2-.5-.1-.1-.1-.3-.2-.4-.7-1-1.4-2.1-2.2-3.1-5.5-7.5-11-15-16.6-22.4-4.1-5.4-8.3-10.6-12.5-15.9-.6-.7-1.1-1.5-1.7-2.2-.1-.1-.1-.2-.2-.3h0c-.1-.1-.1-.3,0-.5q0-.1.1-.2c.6-.9,1.1-1.8,1.8-2.8.1.1.2.2.3.3.2.2.3.4.4.5q.1.1.2.2c1.8,2,3.7,4,5.6,6,.4.5.9,1,1.4,1.4l.7.7c.2.3.5.5.7.8.7.9,1.4,1.7,2.1,2.6,2.1,2.6,4.2,5.2,6.2,7.8,2.3,3.2,4.5,6.5,6.9,9.8Zm-13.3-41.3q-.1,0-.1-.1h0s.1,0,.1.1Zm.1,0s-.2,0-.3-.1c.1,0,0,0,0,.1h0c0,.1.2.1.3,0,1.2.7,2.5,1.4,3.7,2.1.6.4,1,.7,1.7,1.1.6.4,1.7.7,1.7,1.1l-.3,8.8h0c0,.1.3.2.4.3h-.3v-.3c-.1,0-.1-.1-.2-.1s-.1-.1-.1-.1h-.1c-1.2-.7-2.3-1.4-3.3-2-.1-.1-.2-.1-.3-.2s-.1-.1-.2-.2c-.6-.4-1.1-.8-1.7-1.3-.4-.3-.7-.9-.8-1.3-.1-.8-.5-1.6-.5-2.3h0c0-2-.2-3.8.3-5.6Zm5-5.7c2.3,1.1,4.6,1.9,7.1,2.2.3,0,.6.3.6.4v.1c0,.1.2.1.1.2v.2c0,.1,0,.2-.1.2l-.1.1s0,.1-.1.1c-.2.2-.5.3-.7.5,0,0-.1,0-.1.1-.1.1-.2.1-.4.2h-.1c-.2.1-.4.1-.5.2-.2.1-.4.1-.7.1h-.6c-.3,0-.6,0-.9-.1-1.5-.3-2.6-1-3.5-1.9l-.7-.7c-.4-.5-.9-1-1.3-1.6-.2-.3-.4-.6-.6-.8,1.1-.2,1.9.1,2.6.5Zm-15.3-12.9v-.6c.1-.2.1-.4.2-.7.1-.2.2-.5.3-.7.1-.3.2-.5.4-.8.3-.7.7-1.4,1.2-2,.1-.2.3-.4.4-.6.3-.5.6-1,1-1.5,1.3-1.8,2.6-3.4,3.5-3.9.7.8,1.3,1.7,1.9,2.6.1.2.2.4.3.6s.2.4.3.6c.4.7.7,1.4.9,2.2.1.3.1.6.1.9-.1,2.2-.2,4.4-.3,6.6,0,1.1-.1,2.2-.1,3.3v.1c0,.1-.1.3-.1.5h0c-4-2.1-7-4.3-10-6.6h0Zm-8.8,6.9c1-1.2,1.9-2.4,2.9-3.7.3-.4.5-.6.8-.7.2-.1.3-.1.5-.1.1,0,.2.1.4.1.2.1.3.1.5.3,3.1,1.7,6.1,3.3,9.1,5,.4.2.8.5,1.2.9-1.2,1.5-2.4,3.2-3.5,4.7-.4.5-.8-.3-1.1,1.7h0c-2.8-2-10.5-5.9-11.4-6.9.2-.4.4-1,.6-1.3Zm-11.5,16.1c0-.1.1-.1.1-.2.1-.2.2-.3.3-.5,2.4-3.1,4.7-6.2,7.1-9.3.7-.9.9-1,2-.4,3.4,1.8,6.9,3.6,10.3,5.5.1.1.2.2.4.3-2.4,3.6-4.7,7.1-7,10.6-1.6-.5-12.6-5.5-13.2-6Zm17.1,40.2c.2-1,.9-2,1.4-2.9,1.5-2.6,3-5.1,4.5-7.7.3-.5.6-1.1.9-1.7-.2-.1-.3-.2-.4-.3-.1-.1-.2-.1-.3-.2-4.3-2.2-8.6-4.4-13-6.6-.6-.3-1.2-.6-1.7-1-1.2-.6-2.4-1.3-3.6-1.9-.4-.2-.9-.3-1.1-.9.3-.2.5-.5.8-.6,2.3-1.2,4.5-2.3,6.8-3.5.3-.2.6-.3.8-.3.1-.1.2.2.3.2s.1.2.2.2h0c.1,0,.1-.2.2-.2.4.1.5.2,1.1.8.2.2.3.3.3.5h0c2,2.1,3.8,4.3,5.5,6.4,9,10.9,17.4,22.3,25.1,34.1,6.2,9.3,11.8,19.3,16.6,29.4.1.2-1.3.2.7.7h0c0,.1-.4.2-.4.2h-1.4c-5-.2-9.5-.5-14.5-.7-.2,0-.5-.2-.7-.2h0c-.3,0,0-.3,0-.7h0c0-.1-.9-.2-1-.3-2.6-4.6-5.7-9.1-8.3-13.6-2.5-4.3-5.2-8.6-7.7-12.9-.3-.4-.7-.8-.9-1.2h-.1c-.1,0-.1.1-.2.1.1.5.1.9.2,1.4,1.4,6,2.7,12,4.1,18,.1.7.3,1.4.4,2.1.4,2.1.8,4.1,1.2,6.2v1c-.9.3-5.4,0-6.8,0h0c-.1-1-.2-.9-.3-1.2-1.1-4.8-2.3-9.6-3.3-14.4-.4-1.6-.7-3.2-1-4.8-.3-1.3-.5-2.6-.8-3.8-.3-1.3-.5-2.5-.8-3.8s-.5-2.5-.7-3.8c-.6-3-1.1-5.9-1.7-8.9-.1-.3-.2-.7-.2-1,0-.1-.1-.2-.1-.3-.1-.2-.1-.4-.1-.7v-1.2Zm23.5,77.5c-1.1-.4-2.1-.8-3.2-1.2-.3-.1-.6-.2-.8-.3s-.4-.2-.6-.3c-.1-.1-.2-.1-.3-.2l-.1-.1-.1-.1v-.7c0-.3.1-.7.3-1.3,1.3-5,2.5-9.9,3.7-14.9.4-1.6,1.6-2.6,2.9-3.5.6-.4,1.2-.2,1.7.4.2.3.4.6.6.9.8,1.6.8,3.2.4,4.9-.8,4.1-1.6,8.1-2.4,12.2-.3,1.5-.5,3-1.2,4.4-.3.1-.6-.1-.9-.2Zm-26.4-48.5c2.1,4.6,4.1,9.2,6.1,13.9h0c-3,0-4.6,0-6.8-.1-.6,0-1.4,0-2-.1-.4,0-.8,0-1.2-.1-.4,0-.7-.1-1.1-.1,1.5-4.6,3.3-9,5-13.5Zm-9.5,22.2l.4-.3h.2v.2l.1-.1v-.1h.1c10.8.4,21.6.9,32.4,1.3v.1s.2,0,.2.1h.2l-.1.1c-3,3.2-3.2,3.5-3.8,6.8-3.7-.1-7.4-.3-11-.4-1.8-.1-3.6.1-5.4,0-1.1-.1-2.2.1-3.2.1h0c-.4,0-.8-.3-1.2-.3-.5,0-.9-.2-1.4-.3v-.1c-.2,0-.4-.1-.7-.1-2.2-.1-4.4-.3-6.6-.4h-.4l.2-6.6Zm1.8,25.9c-.1,1.6-.2,3.2-.7,4.8-.2-.1-.4-.1-.5-.2-3.6-2.1-7.2-4.1-10.7-6.2-1-.6-1.9-1.1-2.9-1.6-.6-.3-.9-.7-.9-1.4,0-.9.1-1.8.1-2.7,0-.4,0-.7.1-1s.2-.6.3-.8l.1-.1c.1-.2.3-.4.4-.5.2-.2.5-.4.8-.5,2.5-1.3,5-2.5,7.6-3.7h.4c1,1,2,1.9,3,2.9l3,3c.2.2.3.7.3,1-.1,2.2-.2,4.6-.4,7Zm21.6-2c-1.1,3.6-2.1,7.2-3.2,10.9,0,.1-.1.2-.1.2-.1.2-.2.4-.2.5-.3.4-.6.3-1.2-.1-1.2-.9-2.4-1.8-3.5-2.7-.7-.6-.9-1.3-.4-2.2.2-.5.5-.9.7-1.4.4-.8.9-1.6,1.4-2.5-.2-.1-.4-.2-.6-.3-.5-.3-1-.6-1.6-.8-.8-.3-1.5-.2-2,.5-.4.5-.8,1.1-1.2,1.7-.3.4-.6.9-1,1.5-.6-.6-1.1-1.2-1.7-1.7.2-.3.3-.5.5-.7.5-.8,1.1-1.6,1.6-2.4.1-.2.2-.3.2-.5.1-.2.1-.4.1-.6,0-.1,0-.2-.1-.3-.1-.2-.2-.3-.3-.5l-.3-.3c-.5-.4-1.1-.7-1.7-1-.6-.3-1.1-.6-1.7-1,.1-.8.2-1.4.3-2.1.1-.7-.1-1.3-.6-1.8-.6-.5-1-1.1-1.1-2,.5-.4,1.1-.5,1.8-.3.6.2,1.1.4,1.7.6,4.9,2.2,9.7,4.4,14.6,6.6.2.1.4.3.7.4-.1.4-.2.8-.4,1.2-.5.3-.6.7-.7,1.1Zm29.6,35.9c-1.1-.6-1.6-1.1-2.4-1.7-2.3-1.6-4.5-3.2-6.8-4.8-.3-.2-.5-.4-.8-.6-4.2-3-8.4-6-12.6-8.9-.2-.1-.3-.2-.4-.4-.1-.1-.1-.2-.2-.2-.1-.1-.1-.2-.1-.3h0c0-.1-.1-.2-.1-.3v-.5c.3-3.2.4-6.3.7-9.5,0-.3.1-.7.1-1,.1-.4.1-.7.2-1.1.1,0,.2.1.2.1q.1,0,.2.1c.1,0,.1.1.2.1s.1,0,.1.1c3.5,2,6.9,4,10.4,6,.1.1.2.1.3.2l.1.1c0,.1.1.1.1.2s.1.2.1.3v7.3c0,.7.1,2,.2,2h0c.1,0,.3.2.4.1.1-.1.3.1.4,0,.2-.1.4-.1.6-.2,1.4-.9,2.7-1.8,4.1-2.8,1.8-1.3,3.5-2.5,5.3-3.8.2-.1.5-.2.5-.3v.2l-.7,19.6h-.1Zm-.2-34c-.2.1-.5.2-.7.3-.7.3-1.4.5-2.1.6-.3.1-.5.1-.6,0-.1,0-.1-.1-.2-.1-.1-.1-.2-.3-.2-.6-.1-.2-.1-.4-.1-.7-.4-3.9-.9-7.7-1.3-11.6-.2-1.7.1-3.6-.8-5.2-.1-.1-.1-.3-.1-.4-.1-1.7-.7-3.3-1.3-4.9-.2-.5-.4-1.1-.8-1.8.7,0,1.2,0,1.7.1,2.6.1,4.3,1.3,5,3.9.5,1.6.9,3.1,1.2,4.7.3,1.7.6,3.4.9,5,.3,1.7.5,3.4.8,5s.5,3.1.7,4.8c-.7.3-1.4.6-2.1.9Zm5.4-20.2c0,.4-.1.7-.3,1.3-.5-.8-.9-1.7-1.3-2.5-.4-.8-.9-1.7-1.4-2.5h0c.2,0,.5,0,.7.1.4,0,.8.1,1.2.1.2,0,.4.1.5.1h.1c.1,0,.2.1.3.1h0c.1,0,.1.1.1.1q.1.1.1.2v.4c.1.8.1,1.7,0,2.6Z"/>
    <path class="cls-5" d="m284.48,99.2c-7,7.5-11.7,15-14.6,19.7,2.7-4.7,5.6-9.2,9-13.4,1.8-2.2,3.7-4.3,5.6-6.3Z"/>
    <path class="cls-4" d="m325.78,74.8c.2.6.7.7,1.1.9,1.2.6,2.4,1.3,3.6,1.9.6.3,1.2.7,1.7,1,4.3,2.2,8.7,4.4,13,6.6.2.1.4.3.7.5-.3.6-.6,1.2-.9,1.7-1.5,2.6-3,5.1-4.5,7.7-.5.9-1.2,1.9-1.4,2.9s.3,2.1.5,3.2c1.3,6.8,2.6,13.5,4,20.3,1.4,6.4,2.9,12.7,4.4,19,.1.3.2.6.3.9,1.4.4,5.9.5,6.8.3v-.7c-.5-2.8-1-5.5-1.6-8.3-1.3-6-2.7-12-4.1-18-.1-.5-.2-.9-.2-1.4.1,0,.1-.1.2-.1.3.4.6.8.8,1.2,2.5,4.3,5,8.6,7.5,12.9,2.6,4.5,5.3,9.1,7.9,13.7.4.7.9,1.1,1.8,1.1,5,.1,10,.3,15,.5h1.2c-.1-.4-.2-.6-.3-.8-4.9-10.1-10-20-16.2-29.4-7.8-11.8-16-23.2-25-34.1-1.8-2.1-3.6-4.3-5.3-6.4-.2-.2-.3-.4-.5-.6-1.1-1.1-1.4-1.2-2.8-.5-2.3,1.1-4.6,2.3-6.8,3.5-.4.1-.7.3-.9.5Z"/>
    <path class="cls-4" d="m319.28,155.5c-3.1,1.6-6.1,3.2-9.3,4.8-.4-.4-.7-.8-1-1.2-2.8-3.6-5.7-7.2-8.5-10.9-.8-1.1-1.7-2.2-2.5-3.4-.3-.4-.5-.7-.8-1.1-.1-.1-.2-.2-.2-.3-.1-.1-.1-.2-.1-.3h0c-.1-.2-.1-.4-.1-.7,0-.2.1-.5.1-.7.1-.2.1-.4.2-.6.1-.2.1-.4.2-.6,1-2.5,2-5,3-7.4,0-.1.1-.1.1-.2.1-.1.1-.2.1-.3l.1-.1.1-.1c.1-.1.3-.1.5-.1.1,0,.3.1.6.3.6.3,1.2.7,1.8,1.1.2.1.4.2.6.3,1.6.9,3.2,1.8,4.9,2.8.5.3,1.1.6,1.6.9,1.1.6,2.2,1.2,3.3,1.8.2.1.4.2.5.3.5.4.8.8,1,1.5,1.3,4.4,2.6,8.7,3.9,13.1-.2.4-.1.8-.1,1.1Z"/>
    <path class="cls-4" d="m380.18,208.9c.2-6.8.5-13.4.7-20.1-.3.1-.5.2-.7.3-1.8,1.3-3.6,2.5-5.5,3.8-1.4,1-2.7,1.9-4.1,2.8-.4.3-.8.4-1.4.7-.1-.9-.2-1.6-.2-2.3v-7.2c0-.5-.1-.9-.6-1.2-3.5-2-6.9-4-10.4-6-.2-.1-.4-.2-.7-.3-.1.8-.3,1.5-.3,2.1-.2,3.2-.4,6.4-.7,9.5-.1.8.2,1.3.9,1.8,4.2,3,8.4,6,12.6,8.9,2.6,1.8,5.2,3.6,7.8,5.5.8.5,1.7,1,2.6,1.7Z"/>
    <path class="cls-4" d="m373.28,112.3c.3-1,.5-2,.9-2.9.7-1.6.3-2.8-.7-4.2-2.6-3.5-5.1-7.1-7.7-10.6-2.3-3.3-4.6-6.6-7-9.7-2.7-3.5-5.5-7-8.4-10.4-.8-1-1.9-1.9-2.8-2.9-1.9-2-3.7-4-5.6-6-.3-.3-.5-.6-.9-1-.6,1-1.2,1.9-1.8,2.8-.2.3-.1.6.1.9.6.7,1.1,1.5,1.7,2.2,4.2,5.3,8.5,10.5,12.5,15.9,5.6,7.4,11.1,14.9,16.6,22.4.7,1,1.5,2.1,2.2,3.1.1.2.3.4.4.6.3-.1.4-.2.5-.2Z"/>
    <path class="cls-4" d="m327.18,149.1c-.1,2.2-.2,4.4-.2,6.7,9.9.5,19.7,1.1,29.5,1.4.6-3.3.7-3.6,3.7-6.8v-.1s0-.1-.1-.1c-10.8-.4-21.6-.8-32.4-1.2-.2,0-.3.1-.5.1Z"/>
    <path class="cls-4" d="m327.98,179.7c.5-1.6.6-3.2.7-4.8.2-2.4.2-4.7.3-7.1,0-.3-.1-.8-.3-1-2-2-4-4-6-5.9h-.4c-2.5,1.2-5.1,2.4-7.6,3.7-1.2.6-1.8,1.6-1.8,3,0,.9,0,1.8-.1,2.7,0,.7.3,1.1.9,1.4,1,.5,1.9,1.1,2.9,1.6,3.6,2.1,7.2,4.1,10.8,6.2.2.1.3.1.6.2Z"/>
    <path class="cls-4" d="m342.18,53.1c-.2-.1-.3-.2-.4-.3-3.4-1.8-6.8-3.7-10.3-5.5-1-.6-1.2-.5-2,.4-2.4,3.1-4.8,6.2-7.1,9.3-.2.2-.2.4-.4.6.6.5,11.6,5.5,13.1,6,2.4-3.5,4.8-7,7.1-10.5Z"/>
    <path class="cls-4" d="m343.48,175.6c-.5.9-.9,1.7-1.4,2.5-.2.5-.5.9-.7,1.4-.4.8-.3,1.6.4,2.2,1.1.9,2.3,1.9,3.5,2.7.9.6,1.2.5,1.5-.6,1.1-3.6,2.1-7.2,3.2-10.9.2-.8.5-1.5.7-2.4-.3-.2-.5-.3-.7-.4-4.8-2.2-9.7-4.4-14.6-6.6-.5-.2-1.1-.4-1.7-.6-.6-.2-1.2,0-1.8.3.1.9.5,1.5,1.1,2s.7,1.1.6,1.8c-.1.7-.2,1.3-.3,2.1.6.3,1.1.6,1.7,1,.6.3,1.2.6,1.7,1,.8.6,1,1.2.5,2.1-.5.8-1,1.6-1.6,2.4-.1.2-.3.4-.5.7l1.7,1.7c.4-.5.6-1,.9-1.5.4-.6.8-1.2,1.2-1.7.5-.7,1.2-.8,2-.5,1.2.5,1.9.9,2.6,1.3Z"/>
    <path class="cls-4" d="m371.28,150.5c.3.8.5,1.3.8,1.8.7,1.6,1.2,3.2,1.3,4.9,0,.1,0,.3.1.4.9,1.6.6,3.4.8,5.2.5,3.9.9,7.7,1.3,11.6,0,.2,0,.4.1.7.2.6.4.8,1,.7.7-.2,1.4-.4,2.1-.6.9-.3,1.8-.7,2.9-1.2-.3-1.6-.5-3.2-.7-4.8-.5-3.4-1.1-6.7-1.7-10.1-.3-1.6-.7-3.2-1.2-4.7-.8-2.6-2.4-3.8-5-3.9-.5.1-1.1.1-1.8,0Z"/>
    <path class="cls-4" d="m363.68,175.8c.6-1.5.9-3,1.2-4.5.8-4.1,1.6-8.1,2.4-12.2.3-1.7.4-3.3-.4-4.9-.2-.3-.3-.7-.6-.9-.5-.6-1-.8-1.7-.4-1.3.8-2.5,1.8-2.9,3.5-1.3,4.9-2.5,9.9-3.7,14.8-.5,2.2-.6,2.2,1.6,3,1.3.6,2.7,1.1,4.1,1.6Z"/>
    <path class="cls-4" d="m349.38,23.8c-2.1,1.2-6.5,7.8-7.3,10.9,3.2,2.3,6.6,4.4,10.2,6.4.1-.3.2-.4.2-.6.1-3.3.3-6.6.4-9.9,0-.3,0-.6-.1-.9-.6-2.2-2-4.1-3.4-5.9Z"/>
    <path class="cls-4" d="m349.08,43.4c-.5-.3-.8-.7-1.2-.9-3-1.7-6.1-3.4-9.1-5-1.1-.6-1.4-.5-2.2.4-1,1.2-1.9,2.4-2.9,3.7-.2.3-.4.7-.6,1,.9,1.1,8.6,5.5,11.4,6.6,1.4-1.8,3-3.8,4.6-5.8Z"/>
    <path class="cls-4" d="m336.18,126.9c-1.7,4.5-3.5,9-5,13.7,3.7.3,7.2.3,10.9.2-1.9-4.7-3.8-9.3-5.9-13.9Z"/>
    <path class="cls-4" d="m352.78,53.2c-.3,2.7-.4,5.3,0,7.9.1.5.3,1,.7,1.3,2,1.7,4.3,2.8,6.6,4.3.1-3.2.2-6.2.3-9.1-2.5-1.4-5-2.9-7.6-4.4Z"/>
    <path class="cls-4" d="m355.28,47.2c1.6,2.2,3.1,4.4,6.1,5,1.5.3,2.8-.1,4-1,.2-.2.4-.6.4-.9,0-.2-.5-.4-.8-.4-2.6-.3-4.9-1.2-7.3-2.2-.7-.5-1.5-.8-2.4-.5Z"/>
    <path class="cls-4" d="m376.48,47.3c-1.7,1.6-3.6,2.1-5.6,2.6-.7.2-.8.7-.3,1.2.7.7,1.6.9,2.6.6,1.5-.3,3.2-2.5,3.3-4.4Z"/>
    <path class="cls-4" d="m384.68,155.9c.1-.5.2-.9.3-1.3.1-.9.1-1.8.1-2.6,0-.5-.2-.9-.7-.9-.7-.1-1.4-.1-2.4-.2,1,1.8,1.8,3.3,2.7,5Z"/>
  </g>
  <path class="cls-1" d="m441.58,168.9c-.8,24-10.6,45.6-25.9,61.7l-11.4-6.4v-.8c-1-3.9-2.1-7.8-3.1-11.7-.7-2.5-.5-3.1,1.8-4.3,4-2.2,8.1-4.4,12.2-6.7,1.1-.6,2.2-1.3,3.3-1.9,1-.6,1.1-.7.7-1.9-.6-2.1-1.2-4.2-1.8-6.3-3.8-13.9-7.6-27.7-11.4-41.5-1.6-5.8-3.1-11.6-4.8-17.3-2.9-10.2-5.6-20.4-8.5-30.6-1.2-4.5-2.5-8.9-3.8-13.4-.4-1.2-.8-2.5-1.2-3.7-.2-.8-.6-1.3-1.3-1.7-2.7-1.8-5.4-3.6-8.1-5.4-.4-.2-.7-.5-1-.9,38.7,12.9,65.8,50,64.3,92.8Z"/>
  <path class="cls-1" d="m305.43,82.77l-.1.1c0,.1-.1.2-.2.4,0,.1-.1.1-.2.3q-.1.1-.1.2c-.2.2-.3.5-.5.8-.2.4-.6.9-.9,1.4-5.3,8.3-14.73,25.14-17.1,28.9l4.37,2.24c.4,1.1,1.13,4.26,1.83,9.16v.1l9.4,3.6-1,2.5c-.2-.1-.3-.1-.5.1,0,0-.1,0-.1.1l-.1.1c-.1.1-.1.2-.1.3s-.1.1-.1.2c-1,2.5-2,4.9-3,7.4-.1.2-.1.4-.2.6-.1.2-.1.4-.2.6-.1.3-.1.5-.1.7s0,.5.1.7h0v.1l-20.7-14.2h0s-7.8-5.3-8.8-6l-.1-.1c.1-.1.2-.2.3-.3.6-.8,1.3-1.9,2.2-3.4.1-.2.2-.3.3-.5,2.9-4.7,7.6-12.2,14.6-19.7l.1-.1c4.4-4.7,9.8-9.5,16.3-13.5.1-.1.2-.1.3-.2,1.3-1,2.7-1.8,4.3-2.6Z"/>
  <path class="cls-2" d="m61.2,160.46c-.6-.7-1.4-1.3-2.3-1.7l.2-.2c1.9-2,3.1-4.8,3.1-7.6,0-8.1-6.5-14.8-14.7-14.8H0v37.3l26.3,9.7,25.3-.3c7,0,12.6-5.7,12.6-12.7.1-4-.1-6.8-3-9.7Zm-43.2-13.4h21.1c2.3,0,4.2,1.7,4.2,4s-1.9,4-4.2,4h-21.1v-8Zm23.2,25h-23.2v-8h23.2c2.3,0,4.2,1.7,4.2,4s-2,4-4.2,4Z"/>
  <path class="cls-2" d="m115,136.06l-14.5,16.3-14.7-16.3h-22.8l28,28.6v17.4h18v-17.4l28.8-28.6h-22.8Z"/>
  <path class="cls-2" d="m140,136.06v13h21v33h19v-31.4l-10.2-2.6,20.6.9h10.6v-13h-61v.1Z"/>
  <path class="cls-2" d="m50.9,199.06H17v.1l26.1,9.6-.1,8.9v9.5c0,3.2-2.6,5.8-5.8,5.8h-15.3c-5,0-6.3-5-6.6-9H0v7.2c0,7.4,5.9,13.7,13.4,13.8h31.3c8.4,0,16.3-6,16.3-14.5v-27.6l-10.1-3.8Z"/>
  <path class="cls-2" d="m142,199.06v13h21v33h19v-30.9l-12.2-3.1,20.6.9h12.6v-13h-61v.1Z"/>
  <path class="cls-2" d="m257.3,217.06h-24.8c-1.2,0-4.8-.3-4.8-3.5s3.5-3.5,4.8-3.5h16.2c2.4,0,4.6,1,5.7,4h18.5c-1.1-9-8.2-15-16.7-15h-31c-8.4,0-16.2,3.1-16.2,13.6s7.8,14.4,16.3,14.4h24.7c1.3,0,4.8.3,4.8,3.4s-3.4,3.4-4.8,3.4c-4.4,0-17.8-.3-17.8-.3-2.4.1-4.5-.5-5.6-3.5h-18.5c1.1,9,8.2,15,16.6,15h32.5c8.4,0,16.2-3.1,16.2-13.5.1-10.5-7.7-14.5-16.1-14.5Z"/>
  <path class="cls-2" d="m329,199.06v28.2c-1,3.1-3.4,5.8-6.4,5.8h-17.2c-3,0-5.4-2.7-6.4-5.8v-28.2h-18v31.5c0,8.5,8.5,14.5,16.9,14.5h32.2c8.4,0,16.9-6,16.9-14.5v-19.8l-18-11.7Z"/>
  <polygon class="cls-2" points="207.8 148.26 267.9 148.26 249.7 136.46 207.8 136.46 207.8 148.26"/>
  <polygon class="cls-2" points="208 170.66 268.1 170.66 249.9 182.56 208 182.56 208 170.66"/>
  <rect class="cls-2" x="207.8" y="153.56" width="60.1" height="11.8"/>
  <rect class="cls-2" x="207.8" y="170.66" width="60.1" height="11.8"/>
  <polyline class="cls-3" points=".7 173.76 26 183.06 26 183.06"/>
  <polyline class="cls-3" points="50.9 199.06 61.4 202.96 61.7 203.06"/>
  <path class="cls-2" d="m116.7,198.11v29.2c-1,3.1-3.4,5.8-6.4,5.8h-17.2c-3,0-5.4-2.7-6.4-5.8v-28.2h-18v31.5c0,8.5,8.5,14.5,16.9,14.5h32.2c8.4,0,16.9-6,16.9-14.5v-31.8l-18-.7Z"/>
</svg>